<?xml version="1.0" encoding="UTF-8" standalone="no"?><!DOCTYPE svg PUBLIC "-//W3C//DTD SVG 1.1//EN" "http://www.w3.org/Graphics/SVG/1.1/DTD/svg11.dtd"><svg width="100%" height="100%" viewBox="0 0 48 48" version="1.1" xmlns="http://www.w3.org/2000/svg" xmlns:xlink="http://www.w3.org/1999/xlink" xml:space="preserve" xmlns:serif="http://www.serif.com/" style="fill-rule:evenodd;clip-rule:evenodd;stroke-linejoin:round;stroke-miterlimit:1.41421;"><rect x="0" y="0" width="48" height="48" style="fill:none;"/><path d="M23.97,-0.037c-13.244,0 -23.994,10.759 -23.994,24.016c0,13.257 10.75,24.015 23.994,24.015c13.245,0 23.995,-10.758 23.995,-24.015c0,-13.257 -10.75,-24.016 -23.995,-24.016Zm10.798,33.622l-20.395,0c-3.983,0 -7.198,-3.218 -7.198,-7.204c0,-3.987 3.215,-7.205 7.198,-7.205l0.336,0.024c1.055,-4.155 4.775,-7.229 9.261,-7.229c5.303,0 9.598,4.299 9.598,9.606l1.2,0c3.311,0 5.998,2.69 5.998,6.004c0,3.314 -2.687,6.004 -5.998,6.004Z" style="fill-rule:nonzero;"/></svg>