<?xml version="1.0" encoding="UTF-8" standalone="no"?><!DOCTYPE svg PUBLIC "-//W3C//DTD SVG 1.1//EN" "http://www.w3.org/Graphics/SVG/1.1/DTD/svg11.dtd"><svg width="100%" height="100%" viewBox="0 0 102 100" version="1.1" xmlns="http://www.w3.org/2000/svg" xmlns:xlink="http://www.w3.org/1999/xlink" xml:space="preserve" xmlns:serif="http://www.serif.com/" style="fill-rule:evenodd;clip-rule:evenodd;stroke-linejoin:round;stroke-miterlimit:1.41421;"><path d="M50.9,0c-28.109,0 -50.9,22.791 -50.9,50.906c0,22.491 14.584,41.569 34.813,48.303c2.546,0.466 3.475,-1.106 3.475,-2.456c0,-1.206 -0.044,-4.409 -0.069,-8.656c-14.16,3.075 -17.147,-6.825 -17.147,-6.825c-2.316,-5.878 -5.653,-7.444 -5.653,-7.444c-4.622,-3.159 0.35,-3.097 0.35,-3.097c5.109,0.363 7.797,5.247 7.797,5.247c4.54,7.778 11.915,5.531 14.815,4.231c0.463,-3.29 1.775,-5.534 3.232,-6.806c-11.304,-1.284 -23.188,-5.653 -23.188,-25.159c0,-5.556 1.984,-10.1 5.241,-13.66c-0.525,-1.287 -2.272,-6.462 0.497,-13.471c0,0 4.275,-1.369 14,5.218c4.059,-1.128 8.415,-1.693 12.743,-1.712c4.322,0.019 8.678,0.584 12.744,1.712c9.719,-6.587 13.984,-5.218 13.984,-5.218c2.778,7.009 1.032,12.184 0.507,13.471c3.262,3.56 5.234,8.104 5.234,13.66c0,19.556 -11.903,23.859 -23.244,25.119c1.828,1.571 3.457,4.678 3.457,9.428c0,6.803 -0.063,12.293 -0.063,13.962c0,1.363 0.916,2.947 3.5,2.45c20.212,-6.747 34.784,-25.812 34.784,-48.297c0,-28.115 -22.793,-50.906 -50.909,-50.906" style="fill:#181717;"/></svg>